<?xml version="1.0" encoding="UTF-8"?>
<svg id="Layer_1" data-name="Layer 1" xmlns="http://www.w3.org/2000/svg" xmlns:xlink="http://www.w3.org/1999/xlink" viewBox="0 0 1000 1000">
  <defs>
    <style>
      .cls-1 {
        fill: url(#linear-gradient-2);
      }

      .cls-2 {
        fill: url(#linear-gradient-4);
      }

      .cls-3 {
        fill: url(#linear-gradient-3);
      }

      .cls-4 {
        fill: url(#linear-gradient-5);
      }

      .cls-5 {
        fill: url(#linear-gradient-8);
      }

      .cls-6 {
        fill: url(#linear-gradient-7);
      }

      .cls-7 {
        fill: url(#linear-gradient-6);
      }

      .cls-8 {
        fill: url(#linear-gradient);
      }
    </style>
    <linearGradient id="linear-gradient" x1="919.67" y1="295.03" x2="-166.71" y2="809.49" gradientUnits="userSpaceOnUse">
      <stop offset=".02" stop-color="#52835f"/>
      <stop offset=".5" stop-color="#006d4f"/>
      <stop offset="1" stop-color="#004a33"/>
    </linearGradient>
    <linearGradient id="linear-gradient-2" x1="972.41" y1="406.39" x2="-113.99" y2="920.85" xlink:href="#linear-gradient"/>
    <linearGradient id="linear-gradient-3" x1="928.66" y1="314.45" x2="-157.47" y2="828.78" xlink:href="#linear-gradient"/>
    <linearGradient id="linear-gradient-4" x1="998.72" y1="461.96" x2="-87.66" y2="976.42" xlink:href="#linear-gradient"/>
    <linearGradient id="linear-gradient-5" x1="954.87" y1="369.35" x2="-131.51" y2="883.81" xlink:href="#linear-gradient"/>
    <linearGradient id="linear-gradient-6" x1="936.27" y1="330.09" x2="-150.11" y2="844.54" xlink:href="#linear-gradient"/>
    <linearGradient id="linear-gradient-7" x1="879.79" y1="210.82" x2="-206.59" y2="725.27" xlink:href="#linear-gradient"/>
    <linearGradient id="linear-gradient-8" x1="884.83" y1="221.46" x2="-201.55" y2="735.92" xlink:href="#linear-gradient"/>
  </defs>
  <path class="cls-8" d="M369.05,552.48c61.88,26.01,56.58,121.11,26.56,160.82-28.92,38.27-72.84,39.93-103.23,2.7-15.42-18.89-24.39-41.02-29.69-64.43-17.96-79.3-11.73-156.57,21.38-231.18,1.36-3.07,5.6-4.86,8.5-7.24.41,3.82,1.88,7.88,1.08,11.43-16.69,74.15-20.43,148.32,2.23,221.84,5.05,16.4,13.75,32.44,23.97,46.29,14.47,19.63,32.93,17.84,45.37-3.16,15.64-26.42,17.3-54.44,5.91-83.03-4.19-10.5-11.82-16.63-23.58-16.38-11.24.24-22.47.59-33.7,1.01-9.53.36-16.93-2.91-20.68-12.13-3.54-8.69-1.15-17.4,7.77-23.4,78.11-52.56,141.55-121.28,207.3-187.49,36.6-36.86,73.55-73.38,110.41-109.98,1.82-1.81,4.09-3.55,6.47-4.26,1.41-.42,4.91,1.18,4.94,1.97.12,2.97.11,6.64-1.49,8.87-12.14,16.94-23.91,34.24-37.2,50.25-68.57,82.56-138.88,163.54-219.78,234.56-.93.82-1.64,1.89-2.54,2.93Z"/>
  <path class="cls-1" d="M872.35,275.13c-7.27-5.83-14.58-2.6-20.94,2.11-6.08,4.53-12.01,9.42-17.32,14.83-56.42,57.33-112.74,114.74-168.95,172.28-5.02,5.16-9.56,11.07-13.31,17.21-10.4,17.21-5.13,33.94,13.6,41.17,11.03,4.29,23.08,5.87,34.29,9.77,17.14,5.9,34.74,11.17,50.69,19.57,21.82,11.45,30,31.48,24.84,55.47-8.75,40.47-31.09,71.91-66.75,93.24-6.74,4.04-14.83,5.9-22.2,8.71-.84-2.18-1.16-2.56-1.05-2.74,1.51-3.3,3.09-6.57,4.6-9.84,8.75-18.8,13.49-38.15,7.62-58.74-5.9-20.76-23.33-31.41-44.3-26.45-7.27,1.72-13.91,5.87-20.87,8.85-2.92,1.23-5.97,2.21-8.85,3.51-5.87,2.63-13.46,3.97-17.14,8.43-7.87,9.56-15.56,20.1-19.88,31.51-5.48,14.47-8.05,29.9-21.47,40.09-1.33.98-.7,4.57-.98,6.92,2.67.07,5.59.84,7.94,0,2.85-.98,5.17-3.3,8.29-5.45,1.23,3.62,2.07,6.08,2.95,8.57,9.17,26.21,32.36,38.36,58.42,28.67,10.47-3.9,19.29-12.23,29.05-18.27,3.09-1.93,6.67-3.65,10.19-4.15,9.42-1.41,19.5-.35,28.28-3.3,52.21-17.67,82.63-55.82,95.38-107.96,8.15-33.37-3.02-62.39-31.37-81.82-16.37-11.24-35.66-18.41-54.03-26.45-8.89-3.93-18.73-5.73-29.79-8.96,49.22-54.21,97.35-107.26,145.51-160.3-2.28,10.93-6.15,20.73-9.34,30.74-.7,2.18,1.09,5.16,1.76,7.8,2.6-.74,5.87-.74,7.62-2.35,3.09-2.88,5.66-6.53,7.73-10.26,11.45-20.48,22.98-40.89,33.83-61.66,3.79-7.27,2.81-15.28-4.04-20.76ZM637.67,711.85c-15.32,7.45-26.03,1.72-28.39-15.18-.98-9.8.14-18.3,7.62-26.38,7.2-7.87,12.23-17.85,17.71-27.19,3.27-5.55,18.44-11.8,27.3-10.22,9.45,1.65,11.7,8.75,12.12,16.86,1.27,22.84-16.02,52.21-36.36,62.11Z"/>
  <path class="cls-3" d="M247.68,678.62c-16.76-16.65-35.87-30.99-54.21-45.99-2.63-2.18-6.67-2.63-10.05-3.9.42-1.41.88-2.85,1.3-4.29,11.63-7.38,23.4-14.51,34.75-22.27,2.67-1.83,3.93-5.73,5.83-8.68-3.48-.74-7.24-2.7-10.4-2-8.36,1.83-16.69,4.29-24.63,7.45-10.12,4.04-20.06,13.03-29.72,12.54-10.08-.49-19.6-10.05-29.69-14.97-2.53-1.23-6.29.03-9.45.18,1.37,2.92,2.04,6.67,4.25,8.61,7.69,6.75,15.92,12.86,24.73,19.81-1.86,2.39-3.09,3.93-4.29,5.52-21.33,27.65-19.18,59.62,5.97,83.93,17,16.44,37.52,25.86,61.02,27.96,17.78,1.62,35.45-.21,45.04-17.85,9.52-17.53,1.79-33.9-10.47-46.06ZM231.1,710.27c-22.55,7.34-60.92-9.52-70.33-30.88-5.59-12.72-2.74-25.86,8.92-38.75,23.61,20.17,49.5,38.08,63.38,67.03-1.19,1.62-1.48,2.42-1.97,2.6Z"/>
  <path class="cls-2" d="M498.14,722.91c-26.56,19.09-53.78,17.38-57.61-24.84-8.56,5.92-16.33,11.73-24.58,16.76-2.49,1.52-6.28.9-9.48,1.26.95-3.05,1.05-6.85,2.98-9.01,12.55-14.06,25.55-27.72,38.27-41.63,4.15-4.53,8.19-9.45,15.09-6.12,6.92,3.34,7.19,9.44,5.75,16.19-2.26,10.57-5.15,21.21-.46,33.33,17.32-10.68,27.01-25.93,34.01-43.35,1.96-4.88,3.28-10.18,6.06-14.54,4.63-7.27,11.72-9.87,19.81-6.14,7.65,3.52,10.26,10.2,8.2,18.21-2.87,11.16-6.46,22.14-9.23,33.32-1.08,4.36-.74,9.06-1.04,13.61.97.46,1.94.91,2.91,1.37,3.58-6.78,7.45-13.43,10.68-20.38,10.04-21.62,19.67-43.43,29.93-64.94,1.49-3.12,5.6-4.97,8.5-7.41,1.03,3.4,3.3,6.96,2.9,10.19-3.67,30.17-12.34,58.96-25.94,86.12-3.81,7.61-8.55,15.08-14.25,21.37-14.21,15.67-31.64,12.29-39.87-7.1-.76-1.79-1.51-3.59-2.64-6.26Z"/>
  <path class="cls-4" d="M478.25,578.93c-8.27,11.36-15.82,22.18-23.94,32.56-2.05,2.62-5.89,3.82-8.91,5.68-.65-3.46-2.73-7.42-1.72-10.29,4.82-13.68,9.35-27.66,16.12-40.39,8.97-16.86,23.68-17.82,35.76-3.05,6.87,8.41,12.58,17.8,18.39,27.02,4.57,7.24,9.6,7.63,14.88,1.52,8.62-9.98,16.6-20.5,25.3-30.4,2.11-2.41,5.94-3.3,8.99-4.9.1,3.23,1.37,7.04.1,9.6-5.56,11.23-10.97,22.72-18.06,32.98-16.43,23.77-33.98,23.99-51.6,1.33-5.46-7.03-10.31-14.53-15.32-21.65Z"/>
  <path class="cls-7" d="M534.94,540.06c-5.68,8.8-19.22,13.08-28.93,9.14-7.86-3.22-11.11-10.87-7.83-18.76,2.67-6.4,7.62-10.78,13.33-14.42,1.61-1.03,3.28-1.97,5.19-3.13-1.03-1.15-2.06-1.85-2.4-2.79-.36-1.06-.58-2.88.03-3.46.82-.79,2.85-1.4,3.7-.91,7.95,4.58,15.27,9.96,18.67,18.97,2.03,5.34,1.34,10.53-1.76,15.36Z"/>
  <path class="cls-6" d="M157.87,569.51c.92,2.18,2.2,4.18,3.83,5.91-7.1,5-17.11,6.75-24.84,3.61-8.4-3.43-11.87-11.6-8.36-20.01,2.84-6.83,8.12-11.5,14.2-15.38,1.73-1.1,3.51-2.1,5.55-3.34-1.12-1.24-2.22-1.98-2.57-2.98-.39-1.14-.61-3.08.04-3.69.86-.84,3.04-1.49,3.94-.98,5.4,3.12,10.52,6.57,14.46,11.14-2.33,2.59-4.43,5.69-5.96,9.36-2.3,5.51-2.39,11.32-.29,16.36Z"/>
  <path class="cls-5" d="M202.82,565.69c-4.51,7-13.69,11.32-22.37,11.32-2.96,0-5.87-.51-8.5-1.57-2.37-.98-4.38-2.33-5.91-3.96-3.88-4.12-4.94-10.03-2.45-16.07,1.04-2.49,2.39-4.69,4.02-6.67,2.79-3.45,6.32-6.24,10.2-8.71,1.71-1.1,3.49-2.1,5.53-3.34-1.1-1.22-2.2-1.96-2.57-2.98-.37-1.12-.61-3.06.04-3.69.67-.63,2.06-1.16,3.08-1.16.35,0,.65.06.88.2,8.48,4.89,16.28,10.61,19.91,20.23,2.16,5.71,1.41,11.24-1.88,16.4Z"/>
</svg>